<svg width="16" height="16" viewBox="0 0 16 16" fill="none" xmlns="http://www.w3.org/2000/svg">
<rect x="4" y="1" width="12" height="14" rx="1" fill="#2FB776"/>
<path d="M4 11.5H16V14C16 14.5523 15.5523 15 15 15H5C4.44772 15 4 14.5523 4 14V11.5Z" fill="url(#paint0_linear_15_340)"/>
<rect x="10" y="8" width="6" height="3.5" fill="#229C5B"/>
<rect x="10" y="4.5" width="6" height="3.5" fill="#27AE68"/>
<path d="M4 2C4 1.44772 4.44772 1 5 1H10V4.5H4V2Z" fill="#1D854F"/>
<rect x="4" y="4.5" width="6" height="3.5" fill="#197B43"/>
<rect x="4" y="8" width="6" height="3.5" fill="#1B5B38"/>
<path d="M4 6C4 5.17157 4.67157 4.5 5.5 4.5H8.5C9.32843 4.5 10 5.17157 10 6V12C10 12.8284 9.32843 13.5 8.5 13.5H4V6Z" fill="black" fill-opacity="0.3"/>
<rect y="3.5" width="9" height="9" rx="1" fill="url(#paint1_linear_15_340)"/>
<path d="M6.5 10.5L5.09107 7.95L6.43814 5.5H5.33849L4.50687 7.06429L3.689 5.5H2.55498L3.90893 7.95L2.5 10.5H3.59966L4.48625 8.84286L5.36598 10.5H6.5Z" fill="white"/>
<defs>
<linearGradient id="paint0_linear_15_340" x1="4" y1="13.25" x2="16" y2="13.25" gradientUnits="userSpaceOnUse">
<stop stop-color="#163C27"/>
<stop offset="1" stop-color="#2A6043"/>
</linearGradient>
<linearGradient id="paint1_linear_15_340" x1="0" y1="8" x2="9" y2="8" gradientUnits="userSpaceOnUse">
<stop stop-color="#185A30"/>
<stop offset="1" stop-color="#176F3D"/>
</linearGradient>
</defs>
</svg>
